<mxfile host="app.diagrams.net" modified="2024-02-01T06:50:33.999Z" agent="Mozilla/5.0 (Windows NT 10.0; Win64; x64) AppleWebKit/537.36 (KHTML, like Gecko) Chrome/109.0.0.0 Safari/537.36" etag="TZp3DbeV5I8wHozbkg35" version="23.1.0" type="github">
  <diagram name="Page-1" id="OzblGMNQP7kjeC6ncjpZ">
    <mxGraphModel dx="1032" dy="494" grid="1" gridSize="10" guides="1" tooltips="1" connect="1" arrows="1" fold="1" page="1" pageScale="1" pageWidth="850" pageHeight="1100" math="0" shadow="0">
      <root>
        <mxCell id="0" />
        <mxCell id="1" parent="0" />
        <mxCell id="7pk3-SOGmDkyq5R2XHhR-5" value="" style="rounded=0;whiteSpace=wrap;html=1;" vertex="1" parent="1">
          <mxGeometry x="46" y="90" width="730" height="924" as="geometry" />
        </mxCell>
        <mxCell id="7pk3-SOGmDkyq5R2XHhR-1" value="Buku" style="swimlane;fontStyle=1;align=center;verticalAlign=top;childLayout=stackLayout;horizontal=1;startSize=26;horizontalStack=0;resizeParent=1;resizeParentMax=0;resizeLast=0;collapsible=1;marginBottom=0;whiteSpace=wrap;html=1;" vertex="1" parent="1">
          <mxGeometry x="493" y="140" width="160" height="390" as="geometry" />
        </mxCell>
        <mxCell id="7pk3-SOGmDkyq5R2XHhR-2" value="id: int&lt;br&gt;&lt;br&gt;created_at: datetime&lt;br&gt;&lt;br&gt;judul: char&lt;br&gt;&lt;br&gt;penulis: char&lt;br&gt;&lt;br&gt;deskripsi: char&lt;br&gt;&lt;br&gt;tahun_terbit: char&lt;br&gt;&lt;br&gt;penerbit: char&lt;br&gt;&lt;br&gt;jumlah_halaman: int&lt;br&gt;&lt;br&gt;ISBN: int&lt;br&gt;&lt;br&gt;kategori: int(FK)&lt;br&gt;&lt;br&gt;rak: int" style="text;strokeColor=none;fillColor=none;align=left;verticalAlign=top;spacingLeft=4;spacingRight=4;overflow=hidden;rotatable=0;points=[[0,0.5],[1,0.5]];portConstraint=eastwest;whiteSpace=wrap;html=1;" vertex="1" parent="7pk3-SOGmDkyq5R2XHhR-1">
          <mxGeometry y="26" width="160" height="304" as="geometry" />
        </mxCell>
        <mxCell id="7pk3-SOGmDkyq5R2XHhR-3" value="" style="line;strokeWidth=1;fillColor=none;align=left;verticalAlign=middle;spacingTop=-1;spacingLeft=3;spacingRight=3;rotatable=0;labelPosition=right;points=[];portConstraint=eastwest;strokeColor=inherit;" vertex="1" parent="7pk3-SOGmDkyq5R2XHhR-1">
          <mxGeometry y="330" width="160" height="8" as="geometry" />
        </mxCell>
        <mxCell id="7pk3-SOGmDkyq5R2XHhR-4" value="tampilkan_buku()&lt;br&gt;&lt;br&gt;cari_buku()" style="text;strokeColor=none;fillColor=none;align=left;verticalAlign=top;spacingLeft=4;spacingRight=4;overflow=hidden;rotatable=0;points=[[0,0.5],[1,0.5]];portConstraint=eastwest;whiteSpace=wrap;html=1;" vertex="1" parent="7pk3-SOGmDkyq5R2XHhR-1">
          <mxGeometry y="338" width="160" height="52" as="geometry" />
        </mxCell>
        <mxCell id="7pk3-SOGmDkyq5R2XHhR-6" value="Pengunjung" style="swimlane;fontStyle=1;align=center;verticalAlign=top;childLayout=stackLayout;horizontal=1;startSize=26;horizontalStack=0;resizeParent=1;resizeParentMax=0;resizeLast=0;collapsible=1;marginBottom=0;whiteSpace=wrap;html=1;" vertex="1" parent="1">
          <mxGeometry x="492" y="588" width="160" height="340" as="geometry" />
        </mxCell>
        <mxCell id="7pk3-SOGmDkyq5R2XHhR-7" value="id: int&lt;br&gt;&lt;br&gt;nama: char&lt;br&gt;&lt;br&gt;keanggotaan: char&lt;br&gt;&lt;br&gt;tingkat: int&lt;br&gt;&lt;br&gt;jurusan: char&lt;br&gt;&lt;br&gt;kelas: int&lt;br&gt;&lt;br&gt;tanggal: int&lt;br&gt;&lt;br&gt;waktu: int&lt;br&gt;&lt;br&gt;keperluan: int(FK)" style="text;strokeColor=none;fillColor=none;align=left;verticalAlign=top;spacingLeft=4;spacingRight=4;overflow=hidden;rotatable=0;points=[[0,0.5],[1,0.5]];portConstraint=eastwest;whiteSpace=wrap;html=1;" vertex="1" parent="7pk3-SOGmDkyq5R2XHhR-6">
          <mxGeometry y="26" width="160" height="254" as="geometry" />
        </mxCell>
        <mxCell id="7pk3-SOGmDkyq5R2XHhR-8" value="" style="line;strokeWidth=1;fillColor=none;align=left;verticalAlign=middle;spacingTop=-1;spacingLeft=3;spacingRight=3;rotatable=0;labelPosition=right;points=[];portConstraint=eastwest;strokeColor=inherit;" vertex="1" parent="7pk3-SOGmDkyq5R2XHhR-6">
          <mxGeometry y="280" width="160" height="8" as="geometry" />
        </mxCell>
        <mxCell id="7pk3-SOGmDkyq5R2XHhR-9" value="tampilkan()&lt;br&gt;&lt;br&gt;tambah()" style="text;strokeColor=none;fillColor=none;align=left;verticalAlign=top;spacingLeft=4;spacingRight=4;overflow=hidden;rotatable=0;points=[[0,0.5],[1,0.5]];portConstraint=eastwest;whiteSpace=wrap;html=1;" vertex="1" parent="7pk3-SOGmDkyq5R2XHhR-6">
          <mxGeometry y="288" width="160" height="52" as="geometry" />
        </mxCell>
        <mxCell id="7pk3-SOGmDkyq5R2XHhR-10" value="&lt;i&gt;Kategori_Buku&lt;/i&gt;" style="swimlane;fontStyle=1;align=center;verticalAlign=top;childLayout=stackLayout;horizontal=1;startSize=26;horizontalStack=0;resizeParent=1;resizeParentMax=0;resizeLast=0;collapsible=1;marginBottom=0;whiteSpace=wrap;html=1;" vertex="1" parent="1">
          <mxGeometry x="171" y="241" width="160" height="144" as="geometry" />
        </mxCell>
        <mxCell id="7pk3-SOGmDkyq5R2XHhR-11" value="id: int&lt;br&gt;&lt;br&gt;nama: char&lt;br&gt;&lt;br&gt;keterangan: char" style="text;strokeColor=none;fillColor=none;align=left;verticalAlign=top;spacingLeft=4;spacingRight=4;overflow=hidden;rotatable=0;points=[[0,0.5],[1,0.5]];portConstraint=eastwest;whiteSpace=wrap;html=1;" vertex="1" parent="7pk3-SOGmDkyq5R2XHhR-10">
          <mxGeometry y="26" width="160" height="84" as="geometry" />
        </mxCell>
        <mxCell id="7pk3-SOGmDkyq5R2XHhR-12" value="" style="line;strokeWidth=1;fillColor=none;align=left;verticalAlign=middle;spacingTop=-1;spacingLeft=3;spacingRight=3;rotatable=0;labelPosition=right;points=[];portConstraint=eastwest;strokeColor=inherit;" vertex="1" parent="7pk3-SOGmDkyq5R2XHhR-10">
          <mxGeometry y="110" width="160" height="8" as="geometry" />
        </mxCell>
        <mxCell id="7pk3-SOGmDkyq5R2XHhR-13" value="tampilkan()" style="text;strokeColor=none;fillColor=none;align=left;verticalAlign=top;spacingLeft=4;spacingRight=4;overflow=hidden;rotatable=0;points=[[0,0.5],[1,0.5]];portConstraint=eastwest;whiteSpace=wrap;html=1;" vertex="1" parent="7pk3-SOGmDkyq5R2XHhR-10">
          <mxGeometry y="118" width="160" height="26" as="geometry" />
        </mxCell>
        <mxCell id="7pk3-SOGmDkyq5R2XHhR-14" value="&lt;i&gt;Keanggotaan&lt;/i&gt;" style="swimlane;fontStyle=1;align=center;verticalAlign=top;childLayout=stackLayout;horizontal=1;startSize=26;horizontalStack=0;resizeParent=1;resizeParentMax=0;resizeLast=0;collapsible=1;marginBottom=0;whiteSpace=wrap;html=1;" vertex="1" parent="1">
          <mxGeometry x="176" y="615" width="160" height="144" as="geometry" />
        </mxCell>
        <mxCell id="7pk3-SOGmDkyq5R2XHhR-15" value="id: int&lt;br&gt;&lt;br&gt;nama: char&lt;br&gt;&lt;br&gt;keanggotaan: char" style="text;strokeColor=none;fillColor=none;align=left;verticalAlign=top;spacingLeft=4;spacingRight=4;overflow=hidden;rotatable=0;points=[[0,0.5],[1,0.5]];portConstraint=eastwest;whiteSpace=wrap;html=1;" vertex="1" parent="7pk3-SOGmDkyq5R2XHhR-14">
          <mxGeometry y="26" width="160" height="84" as="geometry" />
        </mxCell>
        <mxCell id="7pk3-SOGmDkyq5R2XHhR-16" value="" style="line;strokeWidth=1;fillColor=none;align=left;verticalAlign=middle;spacingTop=-1;spacingLeft=3;spacingRight=3;rotatable=0;labelPosition=right;points=[];portConstraint=eastwest;strokeColor=inherit;" vertex="1" parent="7pk3-SOGmDkyq5R2XHhR-14">
          <mxGeometry y="110" width="160" height="8" as="geometry" />
        </mxCell>
        <mxCell id="7pk3-SOGmDkyq5R2XHhR-17" value="tampilkan()" style="text;strokeColor=none;fillColor=none;align=left;verticalAlign=top;spacingLeft=4;spacingRight=4;overflow=hidden;rotatable=0;points=[[0,0.5],[1,0.5]];portConstraint=eastwest;whiteSpace=wrap;html=1;" vertex="1" parent="7pk3-SOGmDkyq5R2XHhR-14">
          <mxGeometry y="118" width="160" height="26" as="geometry" />
        </mxCell>
        <mxCell id="7pk3-SOGmDkyq5R2XHhR-18" value="&lt;i&gt;Keperluan&lt;/i&gt;" style="swimlane;fontStyle=1;align=center;verticalAlign=top;childLayout=stackLayout;horizontal=1;startSize=26;horizontalStack=0;resizeParent=1;resizeParentMax=0;resizeLast=0;collapsible=1;marginBottom=0;whiteSpace=wrap;html=1;" vertex="1" parent="1">
          <mxGeometry x="183" y="871" width="160" height="114" as="geometry" />
        </mxCell>
        <mxCell id="7pk3-SOGmDkyq5R2XHhR-19" value="id: int&lt;br&gt;&lt;br&gt;nama: char" style="text;strokeColor=none;fillColor=none;align=left;verticalAlign=top;spacingLeft=4;spacingRight=4;overflow=hidden;rotatable=0;points=[[0,0.5],[1,0.5]];portConstraint=eastwest;whiteSpace=wrap;html=1;" vertex="1" parent="7pk3-SOGmDkyq5R2XHhR-18">
          <mxGeometry y="26" width="160" height="54" as="geometry" />
        </mxCell>
        <mxCell id="7pk3-SOGmDkyq5R2XHhR-20" value="" style="line;strokeWidth=1;fillColor=none;align=left;verticalAlign=middle;spacingTop=-1;spacingLeft=3;spacingRight=3;rotatable=0;labelPosition=right;points=[];portConstraint=eastwest;strokeColor=inherit;" vertex="1" parent="7pk3-SOGmDkyq5R2XHhR-18">
          <mxGeometry y="80" width="160" height="8" as="geometry" />
        </mxCell>
        <mxCell id="7pk3-SOGmDkyq5R2XHhR-21" value="tampilkan()" style="text;strokeColor=none;fillColor=none;align=left;verticalAlign=top;spacingLeft=4;spacingRight=4;overflow=hidden;rotatable=0;points=[[0,0.5],[1,0.5]];portConstraint=eastwest;whiteSpace=wrap;html=1;" vertex="1" parent="7pk3-SOGmDkyq5R2XHhR-18">
          <mxGeometry y="88" width="160" height="26" as="geometry" />
        </mxCell>
        <mxCell id="7pk3-SOGmDkyq5R2XHhR-23" value="" style="edgeStyle=entityRelationEdgeStyle;fontSize=12;html=1;endArrow=ERzeroToMany;endFill=1;rounded=0;exitX=1.006;exitY=0.112;exitDx=0;exitDy=0;exitPerimeter=0;" edge="1" parent="1" source="7pk3-SOGmDkyq5R2XHhR-14" target="7pk3-SOGmDkyq5R2XHhR-7">
          <mxGeometry width="100" height="100" relative="1" as="geometry">
            <mxPoint x="290" y="670" as="sourcePoint" />
            <mxPoint x="390" y="570" as="targetPoint" />
            <Array as="points">
              <mxPoint x="350" y="750" />
              <mxPoint x="350" y="710" />
              <mxPoint x="310" y="720" />
              <mxPoint x="320" y="600" />
              <mxPoint x="420" y="620" />
              <mxPoint x="420" y="640" />
            </Array>
          </mxGeometry>
        </mxCell>
        <mxCell id="7pk3-SOGmDkyq5R2XHhR-26" value="" style="edgeStyle=entityRelationEdgeStyle;fontSize=12;html=1;endArrow=ERmany;startArrow=ERmany;rounded=0;exitX=1;exitY=0.5;exitDx=0;exitDy=0;entryX=-0.012;entryY=0.949;entryDx=0;entryDy=0;entryPerimeter=0;" edge="1" parent="1" source="7pk3-SOGmDkyq5R2XHhR-19" target="7pk3-SOGmDkyq5R2XHhR-7">
          <mxGeometry width="100" height="100" relative="1" as="geometry">
            <mxPoint x="375" y="940" as="sourcePoint" />
            <mxPoint x="475" y="840" as="targetPoint" />
            <Array as="points">
              <mxPoint x="425" y="980" />
              <mxPoint x="530" y="940" />
              <mxPoint x="470" y="910" />
            </Array>
          </mxGeometry>
        </mxCell>
        <mxCell id="7pk3-SOGmDkyq5R2XHhR-29" value="" style="edgeStyle=entityRelationEdgeStyle;fontSize=12;html=1;endArrow=ERoneToMany;rounded=0;exitX=1.01;exitY=0.091;exitDx=0;exitDy=0;exitPerimeter=0;" edge="1" parent="1" source="7pk3-SOGmDkyq5R2XHhR-10" target="7pk3-SOGmDkyq5R2XHhR-2">
          <mxGeometry width="100" height="100" relative="1" as="geometry">
            <mxPoint x="370" y="290" as="sourcePoint" />
            <mxPoint x="470" y="190" as="targetPoint" />
          </mxGeometry>
        </mxCell>
      </root>
    </mxGraphModel>
  </diagram>
</mxfile>
